<?xml version="1.0" encoding="utf-8"?>
<!-- Generator: Adobe Illustrator 25.2.0, SVG Export Plug-In . SVG Version: 6.00 Build 0)  -->
<svg version="1.1" id="Capa_1" xmlns="http://www.w3.org/2000/svg" xmlns:xlink="http://www.w3.org/1999/xlink" x="0px" y="0px"
	 viewBox="0 0 369.4 44.3" style="enable-background:new 0 0 369.4 44.3;" xml:space="preserve">
<style type="text/css">
	.st0{fill:#98999B;}
	.st1{fill:#114C81;}
</style>
<g>
	<path class="st0" d="M63.1,1.3v18.1c3.3-4.3,7.2-6.4,11.9-6.4c4,0,7.4,1.4,10.2,4.3c2.8,2.9,4.2,6.4,4.2,10.6
		c0,4.2-1.4,7.8-4.3,10.8C82.3,41.5,78.9,43,75,43c-4.8,0-8.7-2.1-11.9-6.4v5.3h-6.4c-0.6,0-1.1-0.1-1.4-0.4s-0.4-0.6-0.4-1
		c0-0.4,0.1-0.7,0.4-1c0.3-0.2,0.7-0.4,1.4-0.4h3.7V4h-3.7c-0.6,0-1.1-0.1-1.4-0.4s-0.4-0.6-0.4-1c0-0.4,0.1-0.7,0.4-1
		c0.3-0.3,0.7-0.4,1.4-0.4H63.1z M86.8,28c0-3.4-1.2-6.3-3.5-8.7c-2.4-2.4-5.1-3.6-8.3-3.6c-3.2,0-5.9,1.2-8.3,3.6
		c-2.4,2.4-3.5,5.3-3.5,8.7s1.2,6.3,3.5,8.7s5.1,3.6,8.3,3.6c3.2,0,5.9-1.2,8.3-3.6C85.6,34.3,86.8,31.4,86.8,28z"/>
	<path class="st0" d="M121,41.9V38c-4,3.3-8.2,5-12.7,5c-3.3,0-5.8-0.8-7.6-2.5c-1.8-1.7-2.8-3.7-2.8-6.1c0-2.6,1.2-4.9,3.6-6.9
		c2.4-2,6-2.9,10.6-2.9c1.3,0,2.6,0.1,4.1,0.2c1.5,0.2,3.1,0.4,4.8,0.8v-4.4c0-1.5-0.7-2.8-2.1-3.9c-1.4-1.1-3.5-1.7-6.2-1.7
		c-2.1,0-5.1,0.6-8.9,1.8c-0.7,0.2-1.1,0.3-1.3,0.3c-0.3,0-0.6-0.1-0.9-0.4c-0.2-0.3-0.4-0.6-0.4-1c0-0.4,0.1-0.7,0.3-0.9
		c0.3-0.3,1.5-0.8,3.7-1.3c3.4-0.9,5.9-1.4,7.6-1.4c3.4,0,6.1,0.8,8,2.5c1.9,1.7,2.9,3.6,2.9,5.8v18h3.6c0.7,0,1.1,0.1,1.4,0.4
		c0.3,0.2,0.4,0.6,0.4,1c0,0.4-0.1,0.7-0.4,1c-0.3,0.3-0.8,0.4-1.4,0.4H121z M121,28.4c-1.3-0.4-2.6-0.6-4.1-0.8
		c-1.4-0.2-2.9-0.3-4.5-0.3c-4,0-7,0.9-9.3,2.6c-1.7,1.3-2.5,2.8-2.5,4.6c0,1.6,0.6,3,1.9,4.1c1.3,1.1,3.2,1.7,5.6,1.7
		c2.4,0,4.5-0.5,6.6-1.4c2-0.9,4.1-2.4,6.2-4.5V28.4z"/>
	<path class="st0" d="M149.8,13.9v6.9c3.5-3.2,6.2-5.3,8-6.2c1.8-0.9,3.4-1.4,4.9-1.4c1.6,0,3.1,0.5,4.5,1.6
		c1.4,1.1,2.1,1.9,2.1,2.5c0,0.4-0.1,0.8-0.4,1c-0.3,0.3-0.6,0.4-1,0.4c-0.2,0-0.4,0-0.6-0.1c-0.2-0.1-0.4-0.3-0.8-0.7
		c-0.8-0.8-1.4-1.3-2-1.6c-0.6-0.3-1.1-0.4-1.7-0.4c-1.2,0-2.6,0.5-4.3,1.4c-1.7,1-4.6,3.3-8.7,7v14.9h12.1c0.7,0,1.1,0.1,1.4,0.4
		c0.3,0.2,0.4,0.6,0.4,1c0,0.4-0.1,0.7-0.4,1c-0.3,0.3-0.8,0.4-1.4,0.4h-21.4c-0.6,0-1.1-0.1-1.4-0.4c-0.3-0.2-0.4-0.6-0.4-1
		c0-0.4,0.1-0.7,0.4-0.9c0.3-0.2,0.7-0.4,1.4-0.4h6.6V16.6h-5c-0.6,0-1.1-0.1-1.4-0.4s-0.4-0.6-0.4-1c0-0.4,0.1-0.7,0.4-1
		c0.3-0.3,0.7-0.4,1.4-0.4H149.8z"/>
	<path class="st0" d="M184.1,13.9V18c1.9-1.9,3.6-3.3,5.2-4c1.5-0.7,3.3-1.1,5.2-1.1c2.1,0,4,0.4,5.7,1.3c1.2,0.6,2.3,1.7,3.3,3.2
		c1,1.5,1.5,3,1.5,4.6v17.1h2.3c0.6,0,1.1,0.1,1.4,0.4c0.3,0.2,0.4,0.6,0.4,1c0,0.4-0.1,0.7-0.4,1c-0.3,0.3-0.7,0.4-1.4,0.4h-7.3
		c-0.7,0-1.1-0.1-1.4-0.4s-0.4-0.6-0.4-1c0-0.4,0.1-0.7,0.4-1c0.3-0.2,0.8-0.4,1.4-0.4h2.3V22.5c0-1.9-0.7-3.5-2.1-4.9
		c-1.4-1.3-3.3-2-5.6-2c-1.8,0-3.4,0.4-4.7,1.1c-1.3,0.7-3.2,2.5-5.6,5.4v17.1h3.1c0.6,0,1.1,0.1,1.4,0.4c0.3,0.2,0.4,0.6,0.4,1
		c0,0.4-0.1,0.7-0.4,1c-0.3,0.3-0.7,0.4-1.4,0.4h-8.9c-0.6,0-1.1-0.1-1.4-0.4c-0.3-0.3-0.4-0.6-0.4-1c0-0.4,0.1-0.7,0.4-1
		c0.3-0.2,0.7-0.4,1.4-0.4h3.1V16.6h-2.3c-0.6,0-1.1-0.1-1.4-0.4c-0.3-0.3-0.4-0.6-0.4-1c0-0.4,0.1-0.7,0.4-1
		c0.3-0.3,0.7-0.4,1.4-0.4H184.1z"/>
	<path class="st0" d="M240.6,41.9V38c-4,3.3-8.2,5-12.7,5c-3.3,0-5.8-0.8-7.6-2.5c-1.8-1.7-2.8-3.7-2.8-6.1c0-2.6,1.2-4.9,3.6-6.9
		c2.4-2,6-2.9,10.6-2.9c1.3,0,2.6,0.1,4.1,0.2c1.5,0.2,3.1,0.4,4.8,0.8v-4.4c0-1.5-0.7-2.8-2.1-3.9c-1.4-1.1-3.5-1.7-6.2-1.7
		c-2.1,0-5.1,0.6-8.9,1.8c-0.7,0.2-1.1,0.3-1.3,0.3c-0.3,0-0.6-0.1-0.9-0.4c-0.2-0.3-0.4-0.6-0.4-1c0-0.4,0.1-0.7,0.3-0.9
		c0.3-0.3,1.5-0.8,3.7-1.3c3.4-0.9,5.9-1.4,7.6-1.4c3.4,0,6.1,0.8,8,2.5c1.9,1.7,2.9,3.6,2.9,5.8v18h3.6c0.7,0,1.1,0.1,1.4,0.4
		c0.3,0.2,0.4,0.6,0.4,1c0,0.4-0.1,0.7-0.4,1c-0.3,0.3-0.8,0.4-1.4,0.4H240.6z M240.6,28.4c-1.3-0.4-2.6-0.6-4.1-0.8
		c-1.4-0.2-2.9-0.3-4.5-0.3c-4,0-7,0.9-9.3,2.6c-1.7,1.3-2.5,2.8-2.5,4.6c0,1.6,0.6,3,1.9,4.1c1.3,1.1,3.2,1.7,5.6,1.7
		c2.4,0,4.5-0.5,6.6-1.4c2-0.9,4.1-2.4,6.2-4.5V28.4z"/>
	<path d="M259,35.3v-26h-1c-1.6,0-2.7-0.3-3.4-0.9c-0.7-0.6-1-1.4-1-2.4c0-1,0.3-1.8,1-2.4c0.7-0.6,1.8-0.9,3.4-0.9h16.7
		c4,0,7.2,1.1,9.6,3.3c2.4,2.2,3.6,4.8,3.6,7.9c0,1.4-0.3,2.8-0.8,4.1c-0.6,1.3-1.4,2.5-2.6,3.5c2.1,1.3,3.7,2.7,4.7,4.4
		c1,1.7,1.6,3.6,1.6,5.7c0,1.7-0.4,3.3-1.1,4.7c-0.6,1.1-1.3,2-2.1,2.6c-1.1,0.9-2.5,1.6-4.1,2.2c-1.6,0.6-3.6,0.9-6,0.9H258
		c-1.6,0-2.7-0.3-3.4-0.9c-0.7-0.6-1-1.4-1-2.4c0-1,0.3-1.8,1-2.4c0.7-0.6,1.8-0.9,3.4-0.9H259z M265.6,19h7.3c2.6,0,4.8-0.7,6.5-2
		c1.2-0.9,1.8-2,1.8-3.3c0-1.2-0.6-2.2-1.7-3.1c-1.1-0.9-2.9-1.3-5.3-1.3h-8.7V19z M265.6,35.3h11.5c2.7,0,4.6-0.4,5.7-1.2
		c0.8-0.6,1.3-1.5,1.3-2.6c0-1.3-0.8-2.7-2.5-4c-1.7-1.3-4.1-1.9-7.2-1.9h-8.8V35.3z"/>
	<path d="M315.7,9.3v26h6.7c1.6,0,2.7,0.3,3.4,0.9s1,1.4,1,2.4c0,1-0.3,1.8-1,2.4s-1.8,0.9-3.4,0.9h-20.1c-1.6,0-2.7-0.3-3.4-0.9
		s-1-1.4-1-2.4c0-1,0.3-1.8,1-2.4s1.8-0.9,3.4-0.9h6.7v-26h-6.7c-1.6,0-2.7-0.3-3.4-0.9c-0.7-0.6-1-1.4-1-2.4c0-1,0.3-1.8,1-2.4
		s1.8-0.9,3.4-0.9l20.1,0c1.6,0,2.7,0.3,3.4,0.9c0.7,0.6,1,1.4,1,2.4c0,1-0.3,1.8-1,2.4c-0.7,0.6-1.8,0.9-3.4,0.9H315.7z"/>
	<path d="M355.5,9.3v26h4.5c1.6,0,2.7,0.3,3.4,0.9s1,1.4,1,2.4c0,1-0.3,1.8-1,2.4s-1.8,0.9-3.4,0.9h-15.6c-1.6,0-2.7-0.3-3.4-0.9
		s-1-1.4-1-2.4c0-1,0.3-1.8,1-2.4s1.8-0.9,3.4-0.9h4.4v-26h-7.2v6.3c0,1.6-0.3,2.7-0.9,3.4c-0.6,0.7-1.4,1-2.4,1c-1,0-1.8-0.3-2.4-1
		c-0.6-0.7-0.9-1.8-0.9-3.4v-13l34.4,0v12.9c0,1.6-0.3,2.7-0.9,3.4c-0.6,0.7-1.4,1-2.4,1c-1,0-1.8-0.3-2.4-1s-0.9-1.8-0.9-3.4V9.3
		H355.5z"/>
</g>
<path class="st1" d="M42.3,44.3H2c-1.1,0-2-0.9-2-2V2c0-1.1,0.9-2,2-2h40.3c1.1,0,2,0.9,2,2v40.3C44.3,43.4,43.4,44.3,42.3,44.3z"/>
<g>
</g>
<g>
</g>
<g>
</g>
<g>
</g>
<g>
</g>
<g>
</g>
</svg>
